Coordinates
version=1
nRows=7
nColumns=33
inDegrees=yes

Units are S.I. units (second, meters, Newtons, ...)
Angles are in degrees.

endheader
time	ground_thorax_rot_x	ground_thorax_rot_y	ground_thorax_rot_z	ground_thorax_tx	ground_thorax_ty	ground_thorax_tz	clav_prot_r	clav_elev_r	scapula_abduction_r	scapula_elevation_r	scapula_upward_rot_r	scapula_winging_r	shoulder_elv_r	plane_of_elev_r	axial_rot_r	elbow_flexion_r	pro_sup_r	wrist_flex_r	wrist_dev_r	clav_prot_l	clav_elev_l	scapula_abduction_l	scapula_elevation_l	scapula_upward_rot_l	scapula_winging_l	shoulder_elv_l	plane_of_elev_l	axial_rot_l	elbow_flexion_l	pro_sup_l	wrist_flex_l	wrist_dev_l
      8.55000000	    -37.02076621	    -15.57326551	     25.64230188	   -238.46836124	    830.02638385	      6.39580386	      6.81294458	    -45.00000000	     38.50698515	    -45.00000000	    -36.66590983	  -1543.41273770	  -3887.27445926	     32.67815222	     69.04599849	    732.42697703	      9.23499333	     18.91852546	      5.83222895	     14.30163751	     37.42553111	    -36.80947546	    -45.00000000	    -45.00000000	     87.00360919	  -2446.48365217	     23.01100063	    -42.21107981	   -349.98983355	     -4.33464128	      6.65738651	    -19.18790777
      8.56000000	    -37.04027593	    -15.45797265	     25.42067061	   -240.17933100	    830.21955000	      6.44020335	      6.78989385	    -45.00000000	     38.45028964	    -45.00000000	    -36.88038267	  -1543.44810148	  -3887.19644196	     32.69530899	     68.99778860	    732.57030045	     10.45905503	     18.90713326	      5.57920915	     14.21875945	     37.50038764	    -36.71895263	    -45.00000000	    -45.00000000	     87.07737464	  -2446.48362248	     22.91977834	    -42.63012709	   -349.86959842	     -3.75317445	      6.47806704	    -19.21565046
      8.57000000	    -37.10462847	    -15.40020291	     25.32867092	   -241.85343364	    830.38571762	      6.48803856	      6.82175443	    -45.00000000	     38.34178364	    -45.00000000	    -37.12699040	  -1543.53456177	  -3887.23037165	     32.69123127	     69.06082846	    732.61377808	     11.87368138	     18.84713271	      5.30346026	     14.21671216	     37.44069552	    -36.61756540	    -45.00000000	    -45.00000000	     87.14014626	  -2446.44991548	     22.87641837	    -42.71302593	   -349.91793803	     -3.13673524	      6.26387687	    -19.20091520
      8.58000000	    -37.17077793	    -15.25377310	     25.16101511	   -243.49340532	    830.52906567	      6.53833937	      6.85372660	    -45.00000000	     38.26967628	    -45.00000000	    -37.36118267	  -1543.61736179	  -3887.21923107	     32.69864253	     69.13848882	    732.70369240	     13.43471244	     18.78461230	      5.03378439	     14.18014973	     37.41222455	    -36.52635706	    -45.00000000	    -45.00000000	     87.13504306	  -2446.40314989	     22.85189533	    -42.85108838	   -349.92216524	     -2.43763001	      6.05963866	    -19.19438601
      8.59000000	    -37.21347715	    -15.17939180	     25.04443381	   -245.09491865	    830.65165079	      6.58884555	      6.83176548	    -45.00000000	     38.19309524	    -45.00000000	    -37.55018839	  -1543.68080192	  -3887.17561795	     32.66762879	     69.07489041	    732.83102094	     15.03048070	     18.71252218	      4.75955364	     14.10269155	     37.48510334	    -36.46122812	    -45.00000000	    -45.00000000	     87.22600044	  -2446.35330070	     22.74923938	    -43.16921750	   -349.79045108	     -1.67535985	      5.87510777	    -19.22055488
      8.60000000	    -37.28930311	    -15.07761039	     24.87116355	   -246.66683252	    830.75515637	      6.63736770	      6.85295010	    -45.00000000	     38.11507107	    -45.00000000	    -37.69497720	  -1543.73229667	  -3887.22915412	     32.65679253	     69.23154473	    732.86290852	     16.75695922	     18.60637128	      4.51749448	     14.08038472	     37.44306058	    -36.33840085	    -45.00000000	    -45.00000000	     87.14405033	  -2446.35168415	     22.73947325	    -43.23175262	   -350.07870724	     -0.88393528	      5.65583375	    -19.14580736
      8.61000000	    -37.27068747	    -15.07514482	     24.79008016	   -248.20958817	    830.84006337	      6.68147845	      6.96301829	    -45.00000000	     38.09780716	    -45.00000000	    -38.31690793	  -1543.76902340	  -3887.24243757	     32.76301505	     69.25804362	    732.96540203	     18.87903267	     18.48563895	      4.25582650	     14.15164702	     37.25434874	    -36.23257848	    -45.00000000	    -45.00000000	     87.22173848	  -2446.40051641	     22.66490505	    -43.15750430	   -349.99534382	      0.05900059	      5.41353665	    -19.14962281
